inDegrees=no
DataType=double
version=3
OpenSimVersion=4.4-2022-10-11-798caa840
endheader
time	elv_angle	shoulder_elv	shoulder_rot	elbow_flexion	pro_sup	deviation	flexion
2.4020851434	0.8800626993	1.1388037205	0.4363323152	1.6420606375	0.0000000000	0.0000000000	0.0000000000
2.4062554301	0.8800626993	1.1388037205	0.4363323152	1.6420606375	0.0000000000	0.0000000000	0.0000000000
2.4104257168	0.8800626993	1.1388037205	0.4363323152	1.6420606375	0.0000000000	0.0000000000	0.0000000000
2.4145960035	0.8800626993	1.1388037205	0.4363323152	1.6420606375	0.0000000000	0.0000000000	0.0000000000
2.4187662902	0.8800626993	1.1388037205	0.4363323152	1.6420606375	0.0000000000	0.0000000000	0.0000000000
2.4229365769	0.8800626993	1.1388037205	0.4363323152	1.6420606375	0.0000000000	0.0000000000	0.0000000000
2.4271068636	0.8800626993	1.1388037205	0.4363323152	1.6420606375	0.0000000000	0.0000000000	0.0000000000
2.4312771503	0.8800626993	1.1388037205	0.4363323152	1.6420606375	0.0000000000	0.0000000000	0.0000000000
2.4354474370	0.8800626993	1.1388037205	0.4363323152	1.6420606375	0.0000000000	0.0000000000	0.0000000000
2.4396177237	0.8800626993	1.1388037205	0.4363323152	1.6420606375	0.0000000000	0.0000000000	0.0000000000
2.4437880104	0.8800626993	1.1388037205	0.4363323152	1.6420606375	0.0000000000	0.0000000000	0.0000000000
2.4479582971	0.8800626993	1.1388037205	0.4363323152	1.6420606375	0.0000000000	0.0000000000	0.0000000000
2.4521285838	0.8800626993	1.1388037205	0.4363323152	1.6420606375	0.0000000000	0.0000000000	0.0000000000
2.4562988705	0.8800626993	1.1388037205	0.4363323152	1.6420606375	0.0000000000	0.0000000000	0.0000000000
2.4604691573	0.8800626993	1.1388037205	0.4363323152	1.6420606375	0.0000000000	0.0000000000	0.0000000000
2.4646394440	0.8800626993	1.1388037205	0.4363323152	1.6420606375	0.0000000000	0.0000000000	0.0000000000
2.4688097307	0.8800626993	1.1388037205	0.4363323152	1.6420606375	0.0000000000	0.0000000000	0.0000000000
2.4729800174	0.8800626993	1.1388037205	0.4363323152	1.6420606375	0.0000000000	0.0000000000	0.0000000000
2.4771503041	0.8800626993	1.1388037205	0.4363323152	1.6420606375	0.0000000000	0.0000000000	0.0000000000
2.4813205908	0.8800626993	1.1388037205	0.4363323152	1.6420606375	0.0000000000	0.0000000000	0.0000000000
2.4854908775	0.8800626993	1.1388037205	0.4363323152	1.6420606375	0.0000000000	0.0000000000	0.0000000000
2.4896611642	0.8800626993	1.1388037205	0.4363323152	1.6420606375	0.0000000000	0.0000000000	0.0000000000
2.4938314509	0.8800626993	1.1388037205	0.4363323152	1.6420606375	0.0000000000	0.0000000000	0.0000000000
2.4980017376	0.8800626993	1.1388037205	0.4363323152	1.6420606375	0.0000000000	0.0000000000	0.0000000000
2.5021720243	0.8800626993	1.1388037205	0.4363323152	1.6420606375	0.0000000000	0.0000000000	0.0000000000
2.5063423110	0.8800626993	1.1388037205	0.4363323152	1.6420606375	0.0000000000	0.0000000000	0.0000000000
2.5105125977	0.8800626993	1.1388037205	0.4363323152	1.6420606375	0.0000000000	0.0000000000	0.0000000000
2.5146828844	0.8800626993	1.1388037205	0.4363323152	1.6420606375	0.0000000000	0.0000000000	0.0000000000
2.5188531712	0.8800626993	1.1388037205	0.4363323152	1.6420606375	0.0000000000	0.0000000000	0.0000000000
2.5230234579	0.8800626993	1.1388037205	0.4363323152	1.6420606375	0.0000000000	0.0000000000	0.0000000000
2.5271937446	0.8800626993	1.1388037205	0.4363323152	1.6420606375	0.0000000000	0.0000000000	0.0000000000
2.5313640313	0.8800626993	1.1388037205	0.4363323152	1.6420606375	0.0000000000	0.0000000000	0.0000000000
2.5355343180	0.8800626993	1.1388037205	0.4363323152	1.6420606375	0.0000000000	0.0000000000	0.0000000000
2.5397046047	0.8800626993	1.1388037205	0.4363323152	1.6420606375	0.0000000000	0.0000000000	0.0000000000
2.5438748914	0.8800626993	1.1388037205	0.4363323152	1.6420606375	0.0000000000	0.0000000000	0.0000000000
2.5480451781	0.8800626993	1.1388037205	0.4363323152	1.6420606375	0.0000000000	0.0000000000	0.0000000000
2.5522154648	0.8800626993	1.1388037205	0.4363323152	1.6420606375	0.0000000000	0.0000000000	0.0000000000
2.5563857515	0.8800626993	1.1388037205	0.4363323152	1.6420606375	0.0000000000	0.0000000000	0.0000000000
2.5605560382	0.8800626993	1.1388037205	0.4363323152	1.6420606375	0.0000000000	0.0000000000	0.0000000000
2.5647263249	0.8800626993	1.1388037205	0.4363323152	1.6420606375	0.0000000000	0.0000000000	0.0000000000
2.5688966116	0.8800626993	1.1388037205	0.4363323152	1.6420606375	0.0000000000	0.0000000000	0.0000000000
2.5730668983	0.8800626993	1.1388037205	0.4363323152	1.6420606375	0.0000000000	0.0000000000	0.0000000000
2.5772371851	0.8800626993	1.1388037205	0.4363323152	1.6420606375	0.0000000000	0.0000000000	0.0000000000
2.5814074718	0.8800626993	1.1388037205	0.4363323152	1.6420606375	0.0000000000	0.0000000000	0.0000000000
2.5855777585	0.8800626993	1.1388037205	0.4363323152	1.6420606375	0.0000000000	0.0000000000	0.0000000000
2.5897480452	0.8800626993	1.1388037205	0.4363323152	1.6420606375	0.0000000000	0.0000000000	0.0000000000
2.5939183319	0.8800626993	1.1388037205	0.4363323152	1.6420606375	0.0000000000	0.0000000000	0.0000000000
2.5980886186	0.8800626993	1.1388037205	0.4363323152	1.6420606375	0.0000000000	0.0000000000	0.0000000000
2.6022589053	0.8800626993	1.1388037205	0.4363323152	1.6420606375	0.0000000000	0.0000000000	0.0000000000
2.6064291920	0.8800626993	1.1388037205	0.4363323152	1.6420606375	0.0000000000	0.0000000000	0.0000000000
2.6105994787	0.8800626993	1.1388037205	0.4363323152	1.6420606375	0.0000000000	0.0000000000	0.0000000000
2.6147697654	0.8800626993	1.1388037205	0.4363323152	1.6420606375	0.0000000000	0.0000000000	0.0000000000
2.6189400521	0.8800626993	1.1388037205	0.4363323152	1.6420606375	0.0000000000	0.0000000000	0.0000000000
2.6231103388	0.8800626993	1.1388037205	0.4363323152	1.6420606375	0.0000000000	0.0000000000	0.0000000000
2.6272806255	0.8800626993	1.1388037205	0.4363323152	1.6420606375	0.0000000000	0.0000000000	0.0000000000
2.6314509123	0.8800626993	1.1388037205	0.4363323152	1.6420606375	0.0000000000	0.0000000000	0.0000000000
2.6356211990	0.8800626993	1.1388037205	0.4363323152	1.6420606375	0.0000000000	0.0000000000	0.0000000000
2.6397914857	0.8800626993	1.1388037205	0.4363323152	1.6420606375	0.0000000000	0.0000000000	0.0000000000
2.6439617724	0.8800626993	1.1388037205	0.4363323152	1.6420606375	0.0000000000	0.0000000000	0.0000000000
2.6481320591	0.8800626993	1.1388037205	0.4363323152	1.6420606375	0.0000000000	0.0000000000	0.0000000000
2.6523023458	0.8800626993	1.1388037205	0.4363323152	1.6420606375	0.0000000000	0.0000000000	0.0000000000
2.6564726325	0.8800620437	1.1388043165	0.4363323152	1.6420603991	0.0000000000	0.0000000000	0.0000000000
2.6606429192	0.8800575137	1.1388078928	0.4363323152	1.6420578957	0.0000000000	0.0000000000	0.0000000000
2.6648132059	0.8800455928	1.1388177872	0.4363323152	1.6420511007	0.0000000000	0.0000000000	0.0000000000
2.6689834926	0.8800226450	1.1388365030	0.4363323152	1.6420382261	0.0000000000	0.0000000000	0.0000000000
2.6731537793	0.8799854517	1.1388669014	0.4363323152	1.6420174837	0.0000000000	0.0000000000	0.0000000000
2.6773240660	0.8799309134	1.1389114857	0.4363323152	1.6419869661	0.0000000000	0.0000000000	0.0000000000
2.6814943527	0.8798562288	1.1389725208	0.4363323152	1.6419452429	0.0000000000	0.0000000000	0.0000000000
2.6856646394	0.8797585964	1.1390523911	0.4363323152	1.6418904066	0.0000000000	0.0000000000	0.0000000000
2.6898349262	0.8796355128	1.1391530037	0.4363323152	1.6418216228	0.0000000000	0.0000000000	0.0000000000
2.6940052129	0.8794845343	1.1392766237	0.4363323152	1.6417372227	0.0000000000	0.0000000000	0.0000000000
2.6981754996	0.8793036342	1.1394245625	0.4363323152	1.6416357756	0.0000000000	0.0000000000	0.0000000000
2.7023457863	0.8790907860	1.1395988464	0.4363323152	1.6415162086	0.0000000000	0.0000000000	0.0000000000
2.7065160730	0.8788440824	1.1398006678	0.4363323152	1.6413774490	0.0000000000	0.0000000000	0.0000000000
2.7106863597	0.8785619736	1.1400319338	0.4363323152	1.6412186623	0.0000000000	0.0000000000	0.0000000000
2.7148566464	0.8782429695	1.1402932405	0.4363323152	1.6410387754	0.0000000000	0.0000000000	0.0000000000
2.7190269331	0.8778857589	1.1405861378	0.4363323152	1.6408369541	0.0000000000	0.0000000000	0.0000000000
2.7231972198	0.8774892092	1.1409113407	0.4363323152	1.6406123638	0.0000000000	0.0000000000	0.0000000000
2.7273675065	0.8770521879	1.1412699223	0.4363323152	1.6403645277	0.0000000000	0.0000000000	0.0000000000
2.7315377932	0.8765742183	1.1416627169	0.4363323152	1.6400923729	0.0000000000	0.0000000000	0.0000000000
2.7357080799	0.8760542870	1.1420899630	0.4363323152	1.6397960186	0.0000000000	0.0000000000	0.0000000000
2.7398783666	0.8754921556	1.1425522566	0.4363323152	1.6394742727	0.0000000000	0.0000000000	0.0000000000
2.7440486533	0.8748872876	1.1430501938	0.4363323152	1.6391271353	0.0000000000	0.0000000000	0.0000000000
2.7482189401	0.8742396832	1.1435838938	0.4363323152	1.6387538910	0.0000000000	0.0000000000	0.0000000000
2.7523892268	0.8735490441	1.1441533566	0.4363323152	1.6383545399	0.0000000000	0.0000000000	0.0000000000
2.7565595135	0.8728156686	1.1447588205	0.4363323152	1.6379287243	0.0000000000	0.0000000000	0.0000000000
2.7607298002	0.8720396161	1.1454002857	0.4363323152	1.6374760866	0.0000000000	0.0000000000	0.0000000000
2.7649000869	0.8712212443	1.1460775137	0.4363323152	1.6369968653	0.0000000000	0.0000000000	0.0000000000
2.7690703736	0.8703610301	1.1467900276	0.4363323152	1.6364908218	0.0000000000	0.0000000000	0.0000000000
2.7732406603	0.8694596887	1.1475378275	0.4363323152	1.6359574795	0.0000000000	0.0000000000	0.0000000000
2.7774109470	0.8685176969	1.1483201981	0.4363323152	1.6353975534	0.0000000000	0.0000000000	0.0000000000
2.7815812337	0.8675359488	1.1491367817	0.4363323152	1.6348106861	0.0000000000	0.0000000000	0.0000000000
2.7857515204	0.8665153980	1.1499867439	0.4363323152	1.6341972351	0.0000000000	0.0000000000	0.0000000000
2.7899218071	0.8654571176	1.1508696079	0.4363323152	1.6335572004	0.0000000000	0.0000000000	0.0000000000
2.7940920938	0.8643620610	1.1517845392	0.4363323152	1.6328908205	0.0000000000	0.0000000000	0.0000000000
2.7982623805	0.8632314205	1.1527305841	0.4363323152	1.6321985722	0.0000000000	0.0000000000	0.0000000000
2.8024326672	0.8620666862	1.1537069082	0.4363323152	1.6314805746	0.0000000000	0.0000000000	0.0000000000
2.8066029540	0.8608689308	1.1547125578	0.4363323152	1.6307373047	0.0000000000	0.0000000000	0.0000000000
2.8107732407	0.8596398830	1.1557463408	0.4363323152	1.6299691200	0.0000000000	0.0000000000	0.0000000000
2.8149435274	0.8583807349	1.1568073034	0.4363323152	1.6291764975	0.0000000000	0.0000000000	0.0000000000
2.8191138141	0.8570932746	1.1578941345	0.4363323152	1.6283600330	0.0000000000	0.0000000000	0.0000000000
2.8232841008	0.8557789922	1.1590055227	0.4363323152	1.6275200844	0.0000000000	0.0000000000	0.0000000000
2.8274543875	0.8544394374	1.1601406336	0.4363323152	1.6266574860	0.0000000000	0.0000000000	0.0000000000
2.8316246742	0.8530763984	1.1612977982	0.4363323152	1.6257728338	0.0000000000	0.0000000000	0.0000000000
2.8357949609	0.8516917229	1.1624757051	0.4363323152	1.6248667240	0.0000000000	0.0000000000	0.0000000000
2.8399652476	0.8502870202	1.1636729240	0.4363323152	1.6239399910	0.0000000000	0.0000000000	0.0000000000
2.8441355343	0.8488640189	1.1648882627	0.4363323152	1.6229933500	0.0000000000	0.0000000000	0.0000000000
2.8483058210	0.8474248052	1.1661200523	0.4363323152	1.6220275164	0.0000000000	0.0000000000	0.0000000000
2.8524761077	0.8459708095	1.1673669815	0.4363323152	1.6210435629	0.0000000000	0.0000000000	0.0000000000
2.8566463944	0.8445042372	1.1686272621	0.4363323152	1.6200422049	0.0000000000	0.0000000000	0.0000000000
2.8608166811	0.8430266380	1.1698997021	0.4363323152	1.6190245152	0.0000000000	0.0000000000	0.0000000000
2.8649869679	0.8415400982	1.1711828709	0.4363323152	1.6179914474	0.0000000000	0.0000000000	0.0000000000
2.8691572546	0.8400463462	1.1724747419	0.4363323152	1.6169438362	0.0000000000	0.0000000000	0.0000000000
2.8733275413	0.8385471702	1.1737742424	0.4363323152	1.6158829927	0.0000000000	0.0000000000	0.0000000000
2.8774978280	0.8370444775	1.1750795841	0.4363323152	1.6148097515	0.0000000000	0.0000000000	0.0000000000
